<?xml version="1.0" encoding="utf-8"?>
<!-- Generator: Adobe Illustrator 25.0.0, SVG Export Plug-In . SVG Version: 6.00 Build 0)  -->
<svg version="1.1" id="Layer_1" xmlns="http://www.w3.org/2000/svg" xmlns:xlink="http://www.w3.org/1999/xlink" x="0px" y="0px"
	 viewBox="0 0 595.28 298.36" style="enable-background:new 0 0 595.28 298.36;" xml:space="preserve">
<style type="text/css">
	.st0{fill:#E53581;stroke:#E53581;stroke-miterlimit:10;}
</style>
<g>
	<g>
		<path class="st0" d="M348.81,157.46c3.63-1.99,7.29-4.01,11.17-5.74c4.56-2.02,9.37-3.71,14.6-4.49c1.23-0.18,2.53-0.33,3.71,0.51
			c0.81,0.57,1.25,1.33,1.1,2.12c-0.28,1.53-0.6,3.08-1.16,4.53c-0.79,2.07-1.83,4.04-2.66,6.09c-0.31,0.75-0.39,1.6-0.51,2.41
			c-0.08,0.59,0.38,0.86,0.96,0.98c2.96,0.58,5.76,0.32,8.34-0.89c2.94-1.37,5.84-2.84,8.83-4.19c1.1-0.49,2.27-0.74,3.6-0.49
			c0.28,0.05,0.71-0.07,0.87-0.25c2.49-2.75,5.8-4.67,9.43-6.19c3.29-1.38,6.94-1.82,10.87-0.35c1.39,0.52,2.66,1.29,2.84,2.6
			c0.12,0.89-0.05,1.93-0.55,2.63c-1.87,2.61-4.41,4.63-7.89,5.55c-1.89,0.5-3.95,0.44-5.97,0.09c-2.47-0.44-4.93-1.03-7.39-1.47
			c-0.2-0.04-0.56,0.13-0.63,0.29c-1.02,2.24-2.15,4.47-0.67,7.08c0.82,1.46,2.12,2.49,3.66,3.27c2.51,1.26,5.03,0.89,7.5,0.45
			c4.54-0.81,8.65-2.53,12.59-4.56c3.09-1.59,6.07-3.33,9.18-4.92c0.54-0.28,1.14-0.54,1.76,0.14c0.53,0.58,0.4,1.31-0.29,1.71
			c-4.9,2.78-9.83,5.45-15.19,7.49c-3.44,1.31-6.95,2.35-10.79,2.52c-2.13,0.09-4.17-0.28-6.09-1.26c-3.21-1.66-5.8-4.91-5.25-8.39
			c0.22-1.36,0.8-2.64,1.21-3.96c0.05-0.15,0.05-0.32,0.1-0.71c-0.95,0.33-1.77,0.57-2.52,0.9c-2.94,1.3-5.77,2.76-8.67,4.07
			c-2.2,1-4.63,1.27-7.17,1.07c-1.33-0.1-2.57-0.26-3.74-0.97c-1.29-0.79-1.59-2.85-1.12-4.05c1.05-2.65,2.24-5.25,3.3-7.9
			c0.4-1.01,0.56-2.1,0.8-3.16c0.17-0.72-0.34-0.97-1.04-0.86c-1.85,0.29-3.75,0.51-5.49,1.05c-3.81,1.18-7.61,2.41-11.1,4.08
			c-4.5,2.15-8.66,4.75-12.81,7.28c-0.25,0.16-0.52,0.29-0.77,0.46c-0.5,0.33-1.02,0.41-1.51,0.01c-0.51-0.41-0.54-0.92-0.21-1.45
			c0.7-1.09,1.46-2.17,2.11-3.28c1.78-3.03,3.57-6.07,5.41-9.09c0.05-0.08,0.02-0.21,0.02-0.31c-0.08-0.07-0.16-0.13-0.24-0.2
			c-0.24,0.26-0.44,0.56-0.72,0.77c-3.8,2.79-7.47,5.68-11.12,8.55c-2.76,2.17-5.66,4.15-9.03,5.46c-3.4,1.33-6.78,1.56-10.22,0.09
			c-3.69-1.57-5.54-4.78-4.78-8.45c0.19-0.89,0.41-1.78,0.63-2.71c-0.46-0.4-0.63-0.09-0.93,0.28c-1.98,2.41-3.83,4.91-5.91,7.23
			c-2.53,2.82-5.77,4.44-9.83,4.52c-3.23,0.06-5.65-1.3-7.5-3.62c-1.45-1.83-2.38-3.89-2.91-6.11c-0.25-1.06-0.58-2.1-0.92-3.34
			c-3.33,3.42-7.25,5.03-12.18,4.73c2.66,5.36,0.62,10.19-3.77,13.7c-2.86,2.29-6.18,2.89-9.68,1.68c-2.33-0.81-4.07-2.32-5.02-4.57
			c-1.29-3.06-1.29-6.12,0.03-9.25c1-2.36,2.72-4.34,4.81-6.09c1.9-1.59,4.05-2.87,6.4-3.89c1.16-0.5,2.49-1.01,3.68-0.26
			c0.47,0.3,0.87,0.93,0.87,1.42c0,0.77-1.19,1.04-1.95,0.57c-0.29-0.18-0.86-0.28-1.16-0.16c-3.23,1.37-6.11,3.17-8.33,5.67
			c-2.95,3.32-3.89,6.97-2.49,10.87c0.96,2.66,3.73,4.4,6.98,4.15c3.33-0.26,5.38-2.1,7.09-4.52c1.37-1.96,1.92-4.09,1.32-6.33
			c-0.54-1.99-1.54-3.79-3.51-4.99c-0.59-0.36-0.84-0.8-0.63-1.41c0.24-0.71,1.17-0.85,1.94-0.31c1.34,0.92,2.81,1.68,4.53,1.7
			c2.77,0.02,5.38-0.56,7.47-2.38c1.03-0.89,2.11-1.78,2.9-2.82c0.42-0.55,0.32-1.43,0.33-2.17c0.04-2.61-0.21-5.23,0.09-7.83
			c0.44-3.88,1.01-7.78,2.05-11.59c1.5-5.46,3.83-10.78,7.49-15.66c1.21-1.61,2.65-3.2,5.23-3.78c3.08-0.69,5.92,0.68,6.31,3.09
			c0.38,2.32-0.26,4.53-1.07,6.73c-2.22,6.04-5.5,11.71-8.88,17.34c-2.39,3.97-4.89,7.89-7.2,11.87c-0.19,0.32-0.43,0.63-0.69,0.92
			c-0.87,0.98-0.88,2.07-0.63,3.19c0.29,1.31,0.57,2.64,0.97,3.92c0.72,2.35,1.72,4.6,3.83,6.22c1.19,0.92,2.62,1.32,4.25,1.28
			c3.51-0.1,6.19-1.55,8.27-4c1.9-2.24,3.68-4.58,5.52-6.88c1.02-1.28,1.65-2,3.84-1.04c1.4-2.5,3.49-4.58,5.83-6.47
			c2.44-1.97,5.08-3.79,8.38-4.73c1.9-0.54,3.87-0.7,5.86-0.07c1.9,0.61,3.21,2.31,3.32,3.99c0.17,2.7-1.52,4.45-3.75,5.92
			c-3.08,2.02-6.6,3.21-10.36,3.79c-1.79,0.27-3.67,0.12-5.51,0.16c-0.79,0.02-1.58-0.02-2.51-0.03c-0.85,2.09-1.34,4.3,0.01,6.47
			c1.31,2.11,3.51,2.81,6.06,2.97c3.48,0.23,6.29-1.12,8.98-2.83c6.52-4.13,12.18-9.21,18.42-13.82c0.88-0.65,1.7-1.35,2.58-1.99
			c0.49-0.35,1.04-0.69,1.76-0.26c0.73,0.43,0.62,1.03,0.38,1.53c-0.44,0.93-1,1.82-1.54,2.72c-1.78,2.98-3.52,5.97-5.23,8.97
			C349.51,156.4,349.13,156.96,348.81,157.46z M290,144.26c0.11,0.05,0.23,0.1,0.34,0.15c0.05-0.16,0.07-0.34,0.15-0.48
			c1.34-2.34,2.73-4.67,4.14-6.99c3.84-6.32,7.55-12.68,10.3-19.41c0.87-2.14,1.66-4.31,1.51-6.59c-0.06-0.82-0.13-1.69-1.26-2.08
			c-1.17-0.4-2.32-0.19-3.16,0.58c-0.96,0.87-1.96,1.75-2.71,2.73c-2.24,2.91-3.72,6.08-5.1,9.28c-1.71,3.96-2.85,8.03-3.44,12.17
			c-0.37,2.59-0.59,5.19-0.81,7.79C289.9,142.35,289.99,143.3,290,144.26z M319.46,150.03c0.46,0.07,0.84,0.18,1.21,0.19
			c4.72,0.15,9.12-0.65,13.19-2.77c1.64-0.86,3.29-1.8,4.03-3.42c0.78-1.71,0.34-3.72-2.13-4.1c-1.74-0.26-3.46,0.01-4.94,0.77
			c-1.81,0.93-3.58,1.91-5.21,3.04C323.12,145.46,321.04,147.53,319.46,150.03z M399.97,158.95c0.04,0.09,0.08,0.18,0.13,0.26
			c1.35,0.26,2.69,0.63,4.05,0.8c1.83,0.24,3.71,0.55,5.51,0.48c4.21-0.16,6.67-2.49,8.72-5.25c0.34-0.46,0.34-1.06-0.35-1.48
			c-0.48-0.3-1.03-0.6-1.57-0.72c-2.08-0.45-4.13-0.49-6.06,0.04c-3.25,0.89-5.99,2.47-8.53,4.27
			C401.19,157.84,400.6,158.41,399.97,158.95z"/>
		<path class="st0" d="M220.53,163.01c4.81-1.89,7.45-2.71,10.74-3.61c2.53-0.69,5.13-1.24,7.74-0.96c0.93,0.1,1.66,0.42,1.72,1.33
			c0.02,0.31-0.11,0.76-0.36,0.94c-0.26,0.19-0.89,0.3-1.11,0.15c-1.39-0.91-2.96-0.44-4.44-0.18c-4.97,0.88-9.7,2.68-14.37,4.55
			c-5.89,2.35-11.03,5.85-15.01,10.51c-2.32,2.71-4.14,5.66-5.27,8.86c-0.95,2.69-1.51,5.46-0.66,8.12
			c0.88,2.75,3.68,5.38,7.33,5.14c2.86-0.19,5.34-1.25,7.8-2.67c3.62-2.08,6.71-4.7,9.57-7.66c3.25-3.36,6.08-7.06,8.73-10.93
			c3.22-4.72,6.12-9.62,8.84-14.67c2.67-4.96,5.23-9.96,7.42-15.13c2.16-5.08,3.93-10.24,4.77-15.54c0.51-3.24,0.67-6.47,0.11-9.67
			c-0.31-1.77-0.53-3.52-1.82-5.01c-1.9-2.21-5.31-2.77-8.51-2.02c-3.49,0.81-6.43,2.51-9.18,4.42c-0.31,0.22-0.61,0.45-0.93,0.66
			c-0.86,0.58-1.65,1.13-0.78,2.01c0.38,0.39,0.17,0.96-0.48,1.15c-0.5,0.15-1.34,0.18-1.61-0.05c-1.36-1.13-1.39-2.48,0.29-3.8
			c2.25-1.77,4.64-3.42,7.36-4.65c3.65-1.65,7.54-2.77,11.5-1.66c2.73,0.76,4.66,2.18,5.58,4.37c1.4,3.36,1.54,6.9,1.34,10.47
			c-0.21,3.66-1.02,7.28-2.11,10.87c-1.75,5.76-4.11,11.33-6.99,16.74c-2.31,4.33-4.55,8.68-6.94,12.93
			c-3.49,6.19-7.42,12.06-12.02,17.48c-3.2,3.76-6.64,7.2-10.78,9.94c-3.01,1.99-6.12,3.66-9.75,4.33c-3.49,0.65-7.4-1.01-9.42-3.78
			c-2.43-3.33-2.13-6.97-1.11-10.77c1-3.72,3.01-7.12,5.58-10.24c2.77-3.17,5.26-5.43,8.66-7.7
			C216.12,164.73,217.54,164.36,220.53,163.01z"/>
	</g>
</g>
</svg>
